#!OML:ASF E:/inclinewalkrobotboard/Project1/Captureday1/Session1/subject1.ASF
:FULLY-SPECIFIED
:DEGREES
226
root 0 0 0 -3.995480955847269 -1.8194037268481096 2.102236846149959
lowerback 12.049566691071226 -0.28740301148768654 -2.9115461715608433
upperback 1.0491857011394035 -0.6646490428466159 0.964602263008312
thorax -5.654318447472849 -0.23883787054917882 2.743733259049456
lowerneck -16.750300684271316 -2.669363750582674 -2.2868369059348965
upperneck 18.422222287846175 -3.1183742491443045 0.34390053233931916
head 8.583440528225163 -1.6259215067709398 0.10692041539849603
rclavicle 1.7709655971397644E-15 -5.119959599492713E-16
rhumerus -31.51996230755102 -22.963765053996745 -76.268011538625
rradius 26.371172035215515
rwrist 2.6703347930793084
rhand -18.899335210654407 22.933269645604334
rfingers 7.125020000000022
rthumb 7.403594230004933 -6.983014753110901
lclavicle -5.0771507001893E-16 -1.4238038751833484E-16
lhumerus -29.22369667186762 -3.7438297041169926 83.24414840584038
lradius 30.219923205532417
lwrist 6.9172221171026855
lhand -27.744186100955126 24.5181380966608
lfingers 7.1250200000000135
lthumb -1.1280302442172498 54.50668702073813
rfemur -29.947011724580904 -0.19651410908489053 20.96840577929467
rtibia 59.043087108545365
rfoot -7.322735201454627 -8.63291376523783
rtoes 3.5256171128572045
lfemur 2.1555905632204277 -3.330363813554858 -27.369683155789172
ltibia 24.327402903125584
lfoot -16.862076004680205 0.9639575754711771
ltoes -1.443113596335408
227
root 0 0 0 -2.5215337519095664 -0.6122115857088686 2.999156521185489
lowerback 11.126693946644801 -1.067593399692623 -4.0733188188356255
upperback 0.7424988946554575 -1.8313091622841091 1.168934796840789
thorax -5.332848096604672 -0.7896637606541794 3.7807936994996445
lowerneck -17.696665282811292 -2.541797576049375 -2.406747903193022
upperneck 17.59462886151683 -2.8812221669452733 0.23449619750703365
head 8.442685576710248 -1.5235311520945631 0.11242801493767396
rclavicle 2.3946634922761042E-15 -7.931827858417636E-16
rhumerus -31.483587181996278 -23.03514545510183 -76.15669697320686
rradius 26.407682397076712
rwrist 2.682053616887326
rhand -18.892007610626102 22.953391916770737
rfingers 7.125020000000023
rthumb 7.410636365081572 -6.966522250949449
lclavicle 1.0797275452593971E-15 -4.946735885114516E-16
lhumerus -25.82734854379318 -5.274241848875394 82.54741581666715
lradius 31.54265050249581
lwrist 7.220281955186175
lhand -28.028473179694803 24.883907243014267
lfingers 7.125020000000003
lthumb -1.4036914066629702 54.87381585056032
rfemur -35.04256555973062 1.554687782606669 19.189228974464882
rtibia 48.93584277535781
rfoot -7.142060423606006 -12.26014181880227
rtoes -0.7283800901342208
lfemur 7.033923368986836 -2.9880337800967656 -29.02216466477583
ltibia 20.99677104903362
lfoot -17.856740647261013 0.48294317875892734
ltoes 1.456827477796363
228
root 0 0 0 -1.6457864685973305 0.16139549044093338 3.1989839590766445
lowerback 10.347279378594532 -1.4195262819637926 -4.672009618554857
upperback 0.570771134116555 -2.3483585834536864 1.3053781678923488
thorax -5.032514546094672 -1.038054466244869 4.324021746421655
lowerneck -17.48994202864176 -2.4806587435730165 -2.2167455760429644
upperneck 19.147491000239565 -2.822073583907462 -0.016068769900746904
head 8.944786391439814 -1.477515977944424 -0.002141487110939755
rclavicle 3.771531288315844E-15 -1.0840441224874885E-15
rhumerus -31.84443921991415 -23.589075175439966 -76.04092337557758
rradius 25.924255004006284
rwrist 3.007302492452003
rhand -18.84655814336406 22.84505231836474
rfingers 7.125020000000022
rthumb 7.455700843396924 -7.07902655746479
lclavicle 2.912690431220117E-15 -7.367093763110488E-16
lhumerus -24.410857288911288 -5.673833097461958 82.06803020820611
lradius 32.02249648927781
lwrist 7.425663991772392
lhand -28.11621679793274 25.0375757331178
lfingers 7.125020000000001
lthumb -1.4918953862226108 55.029246826406435
rfemur -37.5615521719617 4.962830455287682 18.75777455716569
rtibia 31.629165091692172
rfoot -8.387696931338716 -15.970805868977427
rtoes -4.159931409000369
lfemur 9.638762235473955 -2.9777776493297226 -29.682007835452325
ltibia 19.663207602101053
lfoot -18.11200571396589 0.009924801017531237
ltoes 2.394621454861319
229
root 0 0 0 -1.4545000845233114 0.41395784543425673 3.0633926852874507
lowerback 10.189627746480008 -1.4942046276985246 -4.718011975053526
upperback 0.45644163713478714 -2.44256845418653 1.379798606848181
thorax -5.064771162001636 -1.0844296101507072 4.437133944252199
lowerneck -17.336848972637878 -2.4738173939451658 -2.065064880031971
upperneck 20.10451079618831 -2.8179499250814333 -0.26293376305435423
head 9.257813949583841 -1.4816658753725052 -0.11249011858103147
rclavicle 3.845410638503982E-15 -1.0003815789019526E-15
rhumerus -32.28290228880913 -24.22615237116438 -75.86693221554914
rradius 25.46307750591182
rwrist 3.271809494702418
rhand -18.847363674649934 22.617027707259993
rfingers 7.125020000000021
rthumb 7.455473494410761 -7.313026592338137
lclavicle 3.0592526079725585E-15 -6.067963201455005E-16
lhumerus -24.140802135155564 -5.528174697214377 81.82131058498962
lradius 31.989532991466206
lwrist 7.453977503242095
lhand -28.122465348728724 25.21109240666039
lfingers 7.125020000000002
lthumb -1.4992269838881391 55.203718853331594
rfemur -32.08974393698327 7.5599980989451225 19.52185433095511
rtibia 17.3146538400824
rfoot -8.528007135853217 -14.960396719730733
rtoes -4.594110993862111
lfemur 11.616164453032088 -3.288511206432536 -29.693876822674103
ltibia 19.75384724631344
lfoot -17.224516026866677 -1.1492153552299222
ltoes 1.6286148195501013
230
root 0 0 0 -1.435693907331747 0.46644149517276157 2.701953050739069
lowerback 10.201990892693267 -1.5236324158351149 -4.454327348560779
upperback 0.4165688239957004 -2.4452231443108303 1.4890421484115848
thorax -5.111760404242869 -1.0903128199101317 4.40344947215361
lowerneck -17.34424433656328 -2.4525400219931024 -1.9790924122794942
upperneck 20.255490099045957 -2.7792958008373514 -0.42191918043495713
head 9.310626358671112 -1.4755063905432197 -0.17691538225386183
rclavicle 2.8168293760498253E-15 -1.0116515879233583E-15
rhumerus -32.63149325766819 -24.826372308396888 -75.64683370150988
rradius 25.089372674664496
rwrist 3.5561615549206396
rhand -18.857180666266295 22.40096748534306
rfingers 7.125020000000019
rthumb 7.445571715084904 -7.537313587464862
lclavicle 1.9459433072549124E-15 -5.761576688420681E-16
lhumerus -24.436586905144004 -5.0796986922945075 81.65113526177393
lradius 31.667954853710334
lwrist 7.33388689918208
lhand -28.055739059002086 25.61753888693772
lfingers 7.125020000000004
lthumb -1.4339573653306275 55.60688420323642
rfemur -28.600241921481636 7.8871947162474605 19.34043674296956
rtibia 14.51199812503668
rfoot -7.3400048988904345 -13.048981644785828
rtoes -4.559661743933257
lfemur 14.307051500618702 -3.4722647575483347 -29.40822935815916
ltibia 20.65816883118879
lfoot -14.40283098122695 -3.8298739626115395
ltoes -0.9991605094012534
